<?xml version="1.0" encoding="utf-8"?>
<!-- Generator: Adobe Illustrator 25.0.1, SVG Export Plug-In . SVG Version: 6.00 Build 0)  -->
<svg version="1.1" id="Layer_1" xmlns="http://www.w3.org/2000/svg" xmlns:xlink="http://www.w3.org/1999/xlink" x="0px" y="0px"
	 viewBox="0 0 208.37 46.8" style="enable-background:new 0 0 208.37 46.8;" xml:space="preserve">
<g>
	<path d="M21.96,21.96H0V0h21.96V21.96z M3.33,18.63h15.3V3.33H3.33V18.63z"/>
</g>
<g>
	<path d="M36.04,21.46L25.55,10.98L36.04,0.49l10.49,10.49L36.04,21.46z M30.26,10.98l5.78,5.78l5.78-5.78L36.04,5.2L30.26,10.98z"
		/>
</g>
<g>
	<path d="M21.96,46.8H0V24.84h21.96V46.8z M3.33,43.47h15.3v-15.3H3.33V43.47z"/>
</g>
<g>
	<path d="M47.02,46.8H25.06V24.84h21.96V46.8z M28.39,43.47h15.3v-15.3h-15.3V43.47z"/>
</g>
<g>
	<path d="M66.2,9.17v27.61h-8.82V9.17H47.02V2.03h29.65v7.14H66.2z"/>
	<path d="M104.03,19.33v17.45h-8.38v-3.07c-1.74,2.28-4.56,3.47-8.18,3.47c-5.7,0-9.17-3.47-9.17-8.38c0-5.06,3.62-8.03,10.26-8.08
		h7.04v-0.4c0-2.63-1.73-4.21-5.21-4.21c-2.23,0-5.16,0.79-7.98,2.23l-2.43-5.65c4.16-1.93,7.93-3.02,12.39-3.02
		C99.71,9.67,103.98,13.29,104.03,19.33z M95.6,27.71v-2.38h-5.4c-2.58,0-3.87,0.89-3.87,2.88c0,1.93,1.39,3.17,3.77,3.17
		C92.77,31.38,95.05,29.89,95.6,27.71z"/>
	<path d="M130.69,12.69l-2.92,5.55c-3.22-1.73-6.2-2.68-8.43-2.68c-1.54,0-2.63,0.59-2.63,1.83c0,3.67,14.08,1.88,14.03,11.2
		c0,5.5-4.81,8.53-11.25,8.53c-4.46,0-8.77-1.29-12-3.77l2.73-5.45c3.02,2.13,6.5,3.32,9.47,3.32c1.69,0,2.93-0.59,2.93-1.83
		c0-3.92-13.83-1.88-13.78-11.25c0-5.5,4.66-8.48,10.86-8.48C123.55,9.67,127.42,10.76,130.69,12.69z"/>
	<path d="M144.37,29.5v7.29h-8.58V0h8.58v19.43l8.82-9.37h9.72l-9.82,10.26l10.11,16.46h-10.16l-5.8-10.31L144.37,29.5z"/>
	<path d="M167.02,36.79V0h8.58v36.79H167.02z"/>
	<path d="M196.81,39.56c-1.98,4.86-5.35,7.24-10.31,7.24c-2.97,0-5.4-0.89-7.78-2.73l3.57-5.85c1.24,0.99,2.28,1.44,3.52,1.44
		c1.54,0,2.63-0.69,3.32-2.13l0.64-1.34l-11.11-26.13h8.82l6.54,17.75l5.8-17.75h8.53L196.81,39.56z"/>
</g>
</svg>
